<?xml version="1.0" encoding="UTF-8" standalone="no"?>
<svg xmlns="http://www.w3.org/2000/svg" width="248" height="66" viewBox="0 0 248 66" fill="none">
  <path d="M221.245 18.954H215.505C215.178 18.954 214.893 19.183 214.83 19.504L211.339 42.116C211.294 42.345 211.471 42.556 211.705 42.556H214.524C214.852 42.556 215.137 42.328 215.2 42.006L216.062 36.695C216.125 36.374 216.409 36.145 216.738 36.145H218.705C222.765 36.145 225.024 34.153 225.574 30.284C225.822 28.534 225.543 27.187 224.733 26.245C223.859 25.215 222.321 18.954 221.245 18.954ZM222.088 30.487C221.782 32.62 220.063 32.62 218.401 32.62H217.352L218.183 27.512C218.224 27.284 218.421 27.116 218.652 27.116H219.131C220.26 27.116 221.327 27.116 221.877 27.727C222.211 28.106 222.233 29.095 222.088 30.487Z" fill="#253B80"/>
  <path d="M164.156 18.954H158.415C158.088 18.954 157.803 19.183 157.74 19.504L154.249 42.116C154.204 42.345 154.381 42.556 154.615 42.556H157.443C157.698 42.556 157.911 42.359 157.957 42.108L158.862 36.695C158.925 36.374 159.209 36.145 159.538 36.145H161.505C165.565 36.145 167.824 34.153 168.374 30.284C168.622 28.534 168.343 27.187 167.533 26.245C166.659 25.215 165.231 18.954 164.156 18.954ZM164.998 30.487C164.692 32.62 162.973 32.62 161.311 32.62H160.262L161.093 27.512C161.134 27.284 161.331 27.116 161.562 27.116H162.041C163.17 27.116 164.237 27.116 164.787 27.727C165.122 28.106 165.143 29.095 164.998 30.487Z" fill="#253B80"/>
  <path d="M189.404 30.395H186.572C186.341 30.395 186.145 30.563 186.103 30.792L185.957 31.695L185.734 31.375C185.077 30.45 183.662 30.153 182.25 30.153C178.803 30.153 175.942 32.689 175.412 36.239C175.134 38.018 175.507 39.713 176.435 40.871C177.289 41.944 178.539 42.387 180.036 42.387C182.805 42.387 184.312 40.619 184.312 40.619L184.165 41.522C184.12 41.751 184.297 41.962 184.531 41.962H187.061C187.389 41.962 187.674 41.733 187.737 41.412L189.75 30.835C189.795 30.606 189.638 30.395 189.404 30.395ZM184.776 36.306C184.5 38.062 183.077 39.224 181.273 39.224C180.371 39.224 179.649 38.969 179.162 38.467C178.677 37.964 178.484 37.238 178.611 36.415C178.874 34.681 180.317 33.476 182.094 33.476C182.977 33.476 183.693 33.733 184.192 34.239C184.693 34.745 184.898 35.477 184.776 36.306Z" fill="#253B80"/>
  <path d="M246.496 30.395H243.654C243.423 30.395 243.226 30.563 243.185 30.792L243.038 31.695L242.816 31.375C242.159 30.45 240.744 30.153 239.332 30.153C235.884 30.153 233.024 32.689 232.494 36.239C232.216 38.018 232.588 39.713 233.517 40.871C234.371 41.944 235.621 42.387 237.118 42.387C239.887 42.387 241.393 40.619 241.393 40.619L241.247 41.522C241.202 41.751 241.379 41.962 241.613 41.962H244.142C244.47 41.962 244.755 41.733 244.818 41.412L246.831 30.835C246.877 30.606 246.719 30.395 246.496 30.395ZM241.867 36.306C241.591 38.062 240.169 39.224 238.365 39.224C237.462 39.224 236.741 38.969 236.253 38.467C235.769 37.964 235.575 37.238 235.703 36.415C235.966 34.681 237.409 33.476 239.185 33.476C240.068 33.476 240.785 33.733 241.284 34.239C241.784 34.745 241.99 35.477 241.867 36.306Z" fill="#253B80"/>
  <path d="M228.11 30.395H225.252C224.987 30.395 224.735 30.519 224.576 30.731L220.193 37.092L218.358 30.949C218.256 30.613 217.943 30.395 217.591 30.395H214.79C214.528 30.395 214.335 30.653 214.399 30.908L217.767 40.996L214.57 45.565C214.382 45.828 214.570 46.185 214.885 46.185H217.74C218.002 46.185 218.25 46.064 218.409 45.857L228.435 31.014C228.617 30.75 228.426 30.395 228.11 30.395Z" fill="#253B80"/>
  <path d="M196.969 20.145L193.298 42.116C193.253 42.345 193.43 42.556 193.664 42.556H196.399C196.727 42.556 197.011 42.328 197.074 42.006L200.706 19.504C200.751 19.274 200.574 19.063 200.34 19.063H197.374C197.143 19.063 196.946 19.231 196.904 19.459L196.969 20.145Z" fill="#253B80"/>
  <path d="M37.059 58.115L37.837 53.301L35.888 53.269H18.101L26.768 4.398C26.788 4.281 26.852 4.173 26.948 4.094C27.044 4.015 27.167 3.972 27.295 3.972H44.324C51.454 3.972 56.214 5.749 58.464 9.245C59.516 10.984 60.037 12.812 60.068 14.822C60.101 17.061 59.627 19.53 58.665 22.316L58.602 22.512L58.654 22.61C59.475 23.147 60.151 23.77 60.701 24.495C61.609 25.694 62.102 27.227 62.175 29.037C62.24 30.912 61.888 33.041 61.125 35.362C60.259 38.043 59.001 40.334 57.382 42.168C55.874 43.871 53.99 45.215 51.763 46.178C49.612 47.108 47.048 47.714 44.137 47.979C42.32 48.147 40.241 48.233 37.944 48.233H36.586C35.458 48.233 34.374 48.642 33.536 49.385C32.698 50.128 32.146 51.139 31.956 52.251L31.833 52.885L29.507 67.64L29.412 68.112C29.388 68.24 29.34 68.298 29.272 68.334C29.21 68.367 29.135 68.384 29.059 68.384H20.361L20.9978 64.6159L21.0028 64.5869L21.013 64.5286L22.167 57.954L37.059 58.115Z" fill="#179BD7"/>
  <path d="M61.538 29.184C61.455 29.748 61.346 30.332 61.212 30.937C58.357 44.451 48.93 47.979 37.075 47.979H31.631C30.248 47.979 29.094 48.988 28.867 50.357L25.817 70.222C25.681 71.102 26.355 71.892 27.238 71.892H37.08C38.284 71.892 39.3 70.999 39.499 69.811L39.602 69.272L41.287 58.866L41.417 58.184C41.614 56.996 42.63 56.103 43.834 56.103H45.683C55.833 56.103 63.881 52.982 66.323 41.309C67.293 36.421 66.916 32.329 64.685 29.37C63.703 28.127 62.441 27.138 60.957 26.394C61.165 27.282 61.324 28.211 61.426 29.184H61.538Z" fill="#222D65"/>
  <path d="M58.094 28.213C57.858 28.15 57.617 28.09 57.372 28.033C57.126 27.976 56.876 27.922 56.62 27.873C55.537 27.686 54.374 27.596 53.148 27.596H37.798C37.496 27.596 37.208 27.654 36.941 27.76C36.371 27.983 35.9 28.42 35.692 28.991L32.759 44.901L32.733 45.011C32.942 43.865 33.938 43.028 35.111 43.028H40.556C52.41 43.028 61.838 39.5 64.693 25.986C64.827 25.381 64.935 24.796 65.019 24.233C64.31 23.838 63.546 23.5 62.727 23.214C61.21 22.683 59.499 22.357 57.587 22.119C57.754 24.164 57.516 26.14 58.094 28.213Z" fill="#253B80"/>
</svg>